<svg width="48" height="48" viewBox="0 0 48 48" fill="none" xmlns="http://www.w3.org/2000/svg">
<g clip-path="url(#clip0_68_388)">
<path d="M17.8701 18.4302H12.9601V34.2802H17.8701V18.4302Z" fill="white"/>
<path d="M15.3901 16.3599C15.9708 16.3659 16.5403 16.1997 17.0261 15.8814C17.5118 15.5631 17.892 15.1077 18.1184 14.5728C18.3447 14.038 18.4071 13.4478 18.2974 12.8775C18.1878 12.3072 17.9112 11.7815 17.5026 11.3687C17.0941 10.9559 16.5721 10.6747 16.0029 10.5591C15.4337 10.4436 14.8431 10.4994 14.306 10.7203C13.7688 10.9411 13.3095 11.3169 12.9862 11.7994C12.6629 12.2818 12.4902 12.8495 12.4902 13.4302C12.4875 14.203 12.7912 14.9455 13.3348 15.4947C13.8784 16.0439 14.6174 16.3546 15.3901 16.3599Z" fill="white"/>
<path d="M25.7001 25.96C25.7001 23.73 26.7001 22.4092 28.7001 22.4092C30.5001 22.4092 31.3702 23.68 31.3702 25.96V34.2901H36.2502V24.2901C36.2502 20.0401 33.8502 17.9893 30.4802 17.9893C29.5263 17.9758 28.5852 18.2107 27.7491 18.67C26.913 19.1292 26.2104 19.7972 25.7101 20.6094V18.4698H21.0002V34.3301H25.7001V25.96Z" fill="white"/>
</g>
<rect x="0.500122" y="0.5" width="46.43" height="46.43" rx="9.5" stroke="white"/>
<defs>
<clipPath id="clip0_68_388">
<rect x="0.00012207" width="47.43" height="47.43" rx="10" fill="white"/>
</clipPath>
</defs>
</svg>
