<svg width="48" height="48" viewBox="0 0 48 48" fill="none" xmlns="http://www.w3.org/2000/svg">
<g clip-path="url(#clip0_68_396)">
<path d="M11.0701 31.6596C13.3475 33.1183 15.9821 33.9234 18.6859 33.9857C21.3896 34.0481 24.0585 33.3653 26.4007 32.0131C28.7429 30.6608 30.6682 28.6905 31.9661 26.3178C33.2641 23.9451 33.8847 21.2616 33.7601 18.56C34.7736 17.8283 35.6475 16.9209 36.3401 15.8803C35.3858 16.2992 34.3749 16.5748 33.3401 16.6996C34.422 16.0524 35.2294 15.0323 35.61 13.8305C34.5909 14.4302 33.4791 14.8558 32.3201 15.0902C31.5342 14.2729 30.5018 13.7359 29.3814 13.5619C28.261 13.3879 27.1143 13.586 26.1175 14.1264C25.1207 14.6668 24.3288 15.5193 23.8632 16.5531C23.3976 17.587 23.2841 18.7454 23.5401 19.85C21.4779 19.7463 19.4606 19.2105 17.619 18.2768C15.7773 17.343 14.1526 16.0323 12.8502 14.4301C12.1907 15.5726 11.9901 16.9226 12.289 18.2074C12.5879 19.4923 13.3641 20.6159 14.4601 21.35C13.6363 21.323 12.8306 21.0998 12.11 20.6996C12.0934 21.9086 12.5003 23.0862 13.2601 24.0268C14.0198 24.9673 15.0846 25.612 16.2701 25.85C15.5069 26.0561 14.7069 26.0867 13.9301 25.9398C14.2599 26.9702 14.904 27.8714 15.772 28.517C16.6401 29.1626 17.6884 29.5209 18.7701 29.5404C16.5853 31.2387 13.8163 32.0003 11.0701 31.6596Z" fill="white"/>
</g>
<rect x="0.500122" y="0.5" width="46.43" height="46.43" rx="9.5" stroke="white"/>
<defs>
<clipPath id="clip0_68_396">
<rect x="0.00012207" width="47.43" height="47.43" rx="10" fill="white"/>
</clipPath>
</defs>
</svg>
