<svg width="39" height="37" viewBox="0 0 39 37" fill="none" xmlns="http://www.w3.org/2000/svg">
<g clip-path="url(#clip0_139_44)">
<path fill-rule="evenodd" clip-rule="evenodd" d="M30.9384 28.115C30.2984 27.5432 27.1815 24.7514 26.5699 24.3319C25.9583 23.9125 25.5091 23.6403 24.7938 24.2154C24.0785 24.7905 22.1718 26.0071 21.6129 26.3527C21.054 26.6983 20.5959 26.6544 19.9423 26.0788C18.0137 24.6136 16.361 22.8297 15.0586 20.8075C13.8837 18.9022 13.0085 16.8343 12.4625 14.6734C12.2412 13.8315 12.79 13.5696 13.2263 13.29C13.6625 13.0104 14.2079 12.6609 14.7103 12.3569C14.8298 12.2606 14.9547 12.171 15.0844 12.0884C15.3262 11.8688 15.5233 11.6509 15.8024 11.3554C15.9669 11.1918 16.0874 10.9906 16.1528 10.7701C16.2182 10.5495 16.2266 10.3165 16.1773 10.0919C16.0938 9.67871 15.668 5.70623 15.4619 4.11859C15.2558 2.53096 14.5819 2.56974 14.1475 2.44601C13.7132 2.32227 13.2245 2.18307 12.7902 2.05933C12.4116 1.96006 12.016 1.93902 11.6287 1.99752C11.2413 2.05602 10.8705 2.19279 10.54 2.39916C9.47249 2.92625 8.53078 3.6685 7.77656 4.57722C7.02234 5.48594 6.4727 6.54062 6.16367 7.67207C5.93097 8.51029 5.81772 9.376 5.82719 10.2446C5.88223 12.2068 6.27208 14.1461 6.98058 15.9821C7.20895 16.552 9.7436 25.4236 16.4071 30.4518C23.0706 35.48 23.3722 34.513 24.7651 34.78C26.158 35.0469 29.6624 34.3 30.7745 32.7849C31.5846 31.8491 32.0905 30.6972 32.227 29.4773C32.0157 28.9988 31.5648 28.6829 30.9384 28.115Z" fill="#141613"/>
</g>
<defs>
<clipPath id="clip0_139_44">
<rect width="31.3043" height="28.4532" fill="white" transform="matrix(0.961738 0.273971 -0.284473 0.958684 8.09418 0.620483)"/>
</clipPath>
</defs>
</svg>
