<svg width="163" height="68" viewBox="0 0 163 68" fill="none" xmlns="http://www.w3.org/2000/svg">
<path d="M22.1748 0.721109C28.3689 0.721109 33.6133 2.88873 37.9078 7.22397C42.2024 11.5592 44.3497 16.8532 44.3497 23.1059C44.3497 29.3587 42.2024 34.6527 37.9078 38.9879C33.6133 43.3231 28.3689 45.4908 22.1748 45.4908C15.9807 45.4908 10.7364 43.3231 6.44185 38.9879C2.14728 34.6527 0 29.3587 0 23.1059C0 16.8532 2.14728 11.5592 6.44185 7.22397C10.7364 2.88873 15.9807 0.721109 22.1748 0.721109ZM22.1748 9.16231C18.2519 9.16231 14.969 10.4962 12.3262 13.1641C9.68343 15.8319 8.36202 19.1459 8.36202 23.1059C8.36202 27.0243 9.68343 30.3383 12.3262 33.0478C15.0103 35.7156 18.2932 37.0496 22.1748 37.0496C26.0565 37.0496 29.3187 35.7156 31.9615 33.0478C34.6456 30.3383 35.9877 27.0243 35.9877 23.1059C35.9877 19.1875 34.6456 15.8944 31.9615 13.2266C29.3187 10.5171 26.0565 9.16231 22.1748 9.16231Z" fill="black"/>
<path d="M55.967 26.9826V41.1764C55.967 42.4269 55.5747 43.4482 54.7901 44.2402C54.0055 44.9905 52.9938 45.3657 51.755 45.3657C50.5162 45.3657 49.5045 44.9905 48.7199 44.2402C47.9766 43.4482 47.605 42.4269 47.605 41.1764V26.9826C47.605 23.1893 48.8851 20.0004 51.4453 17.4159C54.0468 14.8315 57.2264 13.5392 60.9842 13.5392C62.1817 13.5392 63.1728 13.9352 63.9574 14.7273C64.7419 15.5193 65.1342 16.5197 65.1342 17.7286C65.1342 20.313 63.7096 21.7303 60.8603 21.9804C59.4563 22.1055 58.2794 22.6266 57.3297 23.5436C56.4212 24.419 55.967 25.5653 55.967 26.9826Z" fill="black"/>
<path d="M100.497 59.1217H100.249C96.4504 59.1217 93.2707 57.8295 90.7105 55.245C88.1503 52.6606 86.8702 49.4508 86.8702 45.6158V41.9892L86.8082 14.227C86.8082 12.8514 86.3127 11.6634 85.3216 10.663C84.3719 9.66253 83.2157 9.16231 81.853 9.16231C80.449 9.16231 79.2514 9.66253 78.2604 10.663C77.3106 11.6217 76.8357 12.8098 76.8357 14.227V41.1764C76.8357 42.4269 76.4434 43.4482 75.6589 44.2402C74.8743 44.9905 73.8626 45.3657 72.6238 45.3657C71.3849 45.3657 70.3732 44.9905 69.5887 44.2402C68.8454 43.4482 68.4737 42.4269 68.4737 41.1764V14.227C68.4737 10.4337 69.7538 7.24481 72.3141 4.66034C74.9156 2.03419 78.0952 0.721109 81.853 0.721109C85.3629 0.721109 88.46 1.97166 91.1441 4.47276C93.8282 6.93217 95.1702 9.93349 95.1702 13.4767L95.2322 45.6158C95.2322 47.0331 95.7071 48.2211 96.6568 49.1799C97.6479 50.1803 98.8454 50.6805 100.249 50.6805H100.497C101.736 50.6805 102.748 51.0765 103.532 51.8686C104.317 52.6606 104.709 53.6819 104.709 54.9324C104.709 56.183 104.317 57.1834 103.532 57.9337C102.748 58.7257 101.736 59.1217 100.497 59.1217Z" fill="black"/>
<path d="M114.392 13.5392C118.852 13.5392 122.61 15.0816 125.665 18.1663C128.721 21.2093 130.249 24.9818 130.249 29.4837C130.249 33.9857 128.721 37.779 125.665 40.8637C122.61 43.9484 118.852 45.4908 114.392 45.4908C109.932 45.4908 106.175 43.9484 103.119 40.8637C100.105 37.779 98.5973 33.9857 98.5973 29.4837C98.5973 24.9818 100.105 21.2093 103.119 18.1663C106.175 15.0816 109.932 13.5392 114.392 13.5392ZM114.392 21.9804C112.328 21.9804 110.573 22.7099 109.127 24.1689C107.682 25.6279 106.959 27.3995 106.959 29.4837C106.959 31.568 107.682 33.3604 109.127 34.8611C110.573 36.3201 112.328 37.0496 114.392 37.0496C116.457 37.0496 118.212 36.3201 119.657 34.8611C121.144 33.3604 121.887 31.568 121.887 29.4837C121.887 27.3995 121.144 25.6279 119.657 24.1689C118.212 22.7099 116.457 21.9804 114.392 21.9804Z" fill="black"/>
<path d="M142.043 41.1764C142.043 42.4269 141.651 43.4482 140.866 44.2402C140.082 44.9905 139.07 45.3657 137.831 45.3657C136.592 45.3657 135.581 44.9905 134.796 44.2402C134.053 43.4482 133.681 42.4269 133.681 41.1764V17.7286C133.681 16.478 134.053 15.4776 134.796 14.7273C135.581 13.9352 136.592 13.5392 137.831 13.5392C140.639 13.5392 142.043 14.9357 142.043 17.7286V41.1764ZM137.831 0.158363C136.427 0.158363 135.209 0.679426 134.177 1.72155C133.185 2.72199 132.69 3.93085 132.69 5.34814C132.69 6.76543 133.185 7.99514 134.177 9.03726C135.209 10.0377 136.427 10.5379 137.831 10.5379C139.235 10.5379 140.433 10.0377 141.424 9.03726C142.456 7.99514 142.972 6.76543 142.972 5.34814C142.972 3.93085 142.456 2.72199 141.424 1.72155C140.433 0.679426 139.235 0.158363 137.831 0.158363Z" fill="black"/>
<path d="M153.838 26.9826V41.1764C153.838 42.4269 153.446 43.4482 152.662 44.2402C151.877 44.9905 150.865 45.3657 149.626 45.3657C148.388 45.3657 147.376 44.9905 146.591 44.2402C145.848 43.4482 145.476 42.4269 145.476 41.1764V26.9826C145.476 23.1893 146.757 20.0004 149.317 17.4159C151.918 14.8315 155.098 13.5392 158.856 13.5392C160.053 13.5392 161.044 13.9352 161.829 14.7273C162.613 15.5193 163.006 16.5197 163.006 17.7286C163.006 20.313 161.581 21.7303 158.732 21.9804C157.328 22.1055 156.151 22.6266 155.201 23.5436C154.293 24.419 153.838 25.5653 153.838 26.9826Z" fill="black"/>
<path d="M118.34 48.49V61H116.288V55.528H110.402V61H108.35V48.49H110.402V53.854H116.288V48.49H118.34ZM125.343 61.162C124.407 61.162 123.561 60.952 122.805 60.532C122.049 60.1 121.455 59.5 121.023 58.732C120.591 57.952 120.375 57.052 120.375 56.032C120.375 55.024 120.597 54.13 121.041 53.35C121.485 52.57 122.091 51.97 122.859 51.55C123.627 51.13 124.485 50.92 125.433 50.92C126.381 50.92 127.239 51.13 128.007 51.55C128.775 51.97 129.381 52.57 129.825 53.35C130.269 54.13 130.491 55.024 130.491 56.032C130.491 57.04 130.263 57.934 129.807 58.714C129.351 59.494 128.727 60.1 127.935 60.532C127.155 60.952 126.291 61.162 125.343 61.162ZM125.343 59.38C125.871 59.38 126.363 59.254 126.819 59.002C127.287 58.75 127.665 58.372 127.953 57.868C128.241 57.364 128.385 56.752 128.385 56.032C128.385 55.312 128.247 54.706 127.971 54.214C127.695 53.71 127.329 53.332 126.873 53.08C126.417 52.828 125.925 52.702 125.397 52.702C124.869 52.702 124.377 52.828 123.921 53.08C123.477 53.332 123.123 53.71 122.859 54.214C122.595 54.706 122.463 55.312 122.463 56.032C122.463 57.1 122.733 57.928 123.273 58.516C123.825 59.092 124.515 59.38 125.343 59.38ZM144.526 50.92C145.306 50.92 146.002 51.082 146.614 51.406C147.238 51.73 147.724 52.21 148.072 52.846C148.432 53.482 148.612 54.25 148.612 55.15V61H146.578V55.456C146.578 54.568 146.356 53.89 145.912 53.422C145.468 52.942 144.862 52.702 144.094 52.702C143.326 52.702 142.714 52.942 142.258 53.422C141.814 53.89 141.592 54.568 141.592 55.456V61H139.558V55.456C139.558 54.568 139.336 53.89 138.892 53.422C138.448 52.942 137.842 52.702 137.074 52.702C136.306 52.702 135.694 52.942 135.238 53.422C134.794 53.89 134.572 54.568 134.572 55.456V61H132.52V51.082H134.572V52.216C134.908 51.808 135.334 51.49 135.85 51.262C136.366 51.034 136.918 50.92 137.506 50.92C138.298 50.92 139.006 51.088 139.63 51.424C140.254 51.76 140.734 52.246 141.07 52.882C141.37 52.282 141.838 51.808 142.474 51.46C143.11 51.1 143.794 50.92 144.526 50.92ZM160.313 55.798C160.313 56.17 160.289 56.506 160.241 56.806H152.663C152.723 57.598 153.017 58.234 153.545 58.714C154.073 59.194 154.721 59.434 155.489 59.434C156.593 59.434 157.373 58.972 157.829 58.048H160.043C159.743 58.96 159.197 59.71 158.405 60.298C157.625 60.874 156.653 61.162 155.489 61.162C154.541 61.162 153.689 60.952 152.933 60.532C152.189 60.1 151.601 59.5 151.169 58.732C150.749 57.952 150.539 57.052 150.539 56.032C150.539 55.012 150.743 54.118 151.151 53.35C151.571 52.57 152.153 51.97 152.897 51.55C153.653 51.13 154.517 50.92 155.489 50.92C156.425 50.92 157.259 51.124 157.991 51.532C158.723 51.94 159.293 52.516 159.701 53.26C160.109 53.992 160.313 54.838 160.313 55.798ZM158.171 55.15C158.159 54.394 157.889 53.788 157.361 53.332C156.833 52.876 156.179 52.648 155.399 52.648C154.691 52.648 154.085 52.876 153.581 53.332C153.077 53.776 152.777 54.382 152.681 55.15H158.171Z" fill="black"/>
</svg>
